<svg width="29" height="19" viewBox="0 0 29 19" fill="none" xmlns="http://www.w3.org/2000/svg">
<path d="M18.5649 14.2375C19.3529 14.2375 20.1331 14.0823 20.861 13.7808C21.589 13.4793 22.2504 13.0373 22.8076 12.4802C23.3647 11.923 23.8067 11.2616 24.1082 10.5336C24.4098 9.80569 24.5649 9.02547 24.5649 8.23754C24.5649 7.44961 24.4098 6.6694 24.1082 5.94144C23.8067 5.21349 23.3647 4.55205 22.8076 3.9949C22.2504 3.43775 21.589 2.99579 20.861 2.69427C20.1331 2.39274 19.3529 2.23754 18.5649 2.23754C16.9736 2.23754 15.4475 2.86968 14.3223 3.9949C13.1971 5.12012 12.5649 6.64624 12.5649 8.23754C12.5649 9.82884 13.1971 11.355 14.3223 12.4802C15.4475 13.6054 16.9736 14.2375 18.5649 14.2375ZM28.4649 16.7235C28.5604 16.8159 28.6365 16.9263 28.6888 17.0483C28.7411 17.1703 28.7686 17.3016 28.7697 17.4344C28.7707 17.5671 28.7453 17.6988 28.695 17.8217C28.6446 17.9445 28.5703 18.0561 28.4763 18.1499C28.3824 18.2438 28.2707 18.3179 28.1477 18.3681C28.0248 18.4183 27.8931 18.4435 27.7603 18.4423C27.6275 18.441 27.4964 18.4134 27.3744 18.3609C27.2524 18.3084 27.1421 18.2321 27.0499 18.1365L23.4699 14.5565C21.8624 15.8044 19.8397 16.3927 17.8137 16.2017C15.7877 16.0108 13.9106 15.0549 12.5645 13.5286C11.2184 12.0024 10.5046 10.0205 10.5684 7.98647C10.6321 5.95244 11.4686 4.01917 12.9076 2.58019C14.3466 1.14121 16.2798 0.30471 18.3139 0.240969C20.3479 0.177228 22.3298 0.891039 23.856 2.23709C25.3823 3.58315 26.3382 5.46026 26.5291 7.4863C26.7201 9.51234 26.1318 11.535 24.8839 13.1425L28.4649 16.7235Z" fill="#181725"/>
<path d="M0.42041 1.43665C0.42041 0.774125 0.957496 0.23704 1.62002 0.23704H8.07579C8.73832 0.23704 9.2754 0.774125 9.2754 1.43665C9.2754 2.09918 8.73832 2.63627 8.07579 2.63627H1.62003C0.957497 2.63627 0.42041 2.09918 0.42041 1.43665Z" fill="#181725"/>
<path d="M0.42041 8.87485C0.42041 8.21232 0.957496 7.67523 1.62002 7.67523H5.68494C6.34747 7.67523 6.88455 8.21232 6.88455 8.87485C6.88455 9.53738 6.34747 10.0745 5.68494 10.0745H1.62002C0.957496 10.0745 0.42041 9.53738 0.42041 8.87485Z" fill="#181725"/>
<path d="M0.42041 16.3134C0.42041 15.6509 0.957496 15.1138 1.62002 15.1138H8.07579C8.73832 15.1138 9.2754 15.6509 9.2754 16.3134C9.2754 16.976 8.73832 17.513 8.07579 17.513H1.62003C0.957497 17.513 0.42041 16.976 0.42041 16.3134Z" fill="#181725"/>
</svg>
